G04 DipTrace 3.3.1.1*
G04 BottomSilk.gbr*
%MOMM*%
G04 #@! TF.FileFunction,Legend,Bot*
G04 #@! TF.Part,Single*
%ADD31C,0.39216*%
%FSLAX35Y35*%
G04*
G71*
G90*
G75*
G01*
G04 BotSilk*
%LPD*%
X2498323Y1783458D2*
D31*
Y1528238D1*
Y1649812D2*
X2461823Y1686312D1*
X2437397Y1698385D1*
X2400897D1*
X2376750Y1686312D1*
X2364677Y1649812D1*
Y1528238D1*
X2140527Y1698385D2*
Y1528238D1*
Y1661885D2*
X2164673Y1686312D1*
X2189100Y1698385D1*
X2225319D1*
X2249746Y1686312D1*
X2273892Y1661885D1*
X2286246Y1625385D1*
Y1601238D1*
X2273892Y1564738D1*
X2249746Y1540592D1*
X2225319Y1528238D1*
X2189100D1*
X2164673Y1540592D1*
X2140527Y1564738D1*
X2062095Y1783458D2*
Y1528238D1*
X1983664Y1783458D2*
Y1528238D1*
X1892879Y1722531D2*
Y1734604D1*
X1880806Y1759031D1*
X1868733Y1771104D1*
X1844306Y1783177D1*
X1795733D1*
X1771586Y1771104D1*
X1759513Y1759031D1*
X1747160Y1734604D1*
Y1710458D1*
X1759513Y1686031D1*
X1783660Y1649812D1*
X1905233Y1528238D1*
X1735086D1*
X1656655Y1698385D2*
Y1443165D1*
Y1661885D2*
X1632228Y1686031D1*
X1608082Y1698385D1*
X1571582D1*
X1547155Y1686031D1*
X1523009Y1661885D1*
X1510655Y1625385D1*
Y1600958D1*
X1523009Y1564738D1*
X1547155Y1540312D1*
X1571582Y1528238D1*
X1608082D1*
X1632228Y1540312D1*
X1656655Y1564738D1*
X1298578Y1661885D2*
X1310651Y1686312D1*
X1347151Y1698385D1*
X1383651D1*
X1420151Y1686312D1*
X1432224Y1661885D1*
X1420151Y1637738D1*
X1395724Y1625385D1*
X1335078Y1613312D1*
X1310651Y1601238D1*
X1298578Y1576812D1*
Y1564738D1*
X1310651Y1540592D1*
X1347151Y1528238D1*
X1383651D1*
X1420151Y1540592D1*
X1432224Y1564738D1*
X1207792Y1722531D2*
Y1734604D1*
X1195719Y1759031D1*
X1183646Y1771104D1*
X1159219Y1783177D1*
X1110646D1*
X1086500Y1771104D1*
X1074427Y1759031D1*
X1062073Y1734604D1*
Y1710458D1*
X1074427Y1686031D1*
X1098573Y1649812D1*
X1220146Y1528238D1*
X1050000D1*
X2320458Y1178238D2*
X2417885Y1433458D1*
X2515031Y1178238D1*
X2478531Y1263312D2*
X2356958D1*
X2242027Y1384604D2*
X2217600Y1396958D1*
X2181100Y1433177D1*
Y1178238D1*
X2102668D2*
X1932522Y1433177D1*
X1854091Y1348385D2*
Y1178238D1*
Y1299812D2*
X1817591Y1336312D1*
X1793164Y1348385D1*
X1756945D1*
X1732518Y1336312D1*
X1720445Y1299812D1*
Y1178238D1*
Y1299812D2*
X1683945Y1336312D1*
X1659518Y1348385D1*
X1623299D1*
X1598872Y1336312D1*
X1586518Y1299812D1*
Y1178238D1*
X1362367Y1348385D2*
Y1178238D1*
Y1311885D2*
X1386513Y1336312D1*
X1410940Y1348385D1*
X1447160D1*
X1471586Y1336312D1*
X1495733Y1311885D1*
X1508086Y1275385D1*
Y1251238D1*
X1495733Y1214738D1*
X1471586Y1190592D1*
X1447160Y1178238D1*
X1410940D1*
X1386513Y1190592D1*
X1362367Y1214738D1*
X1271582Y1348385D2*
X1198863Y1178238D1*
X1223009Y1129665D1*
X1247436Y1105238D1*
X1271582Y1093165D1*
X1283936D1*
X1125863Y1348385D2*
X1198863Y1178238D1*
X1047431Y1384604D2*
X1023004Y1396958D1*
X986504Y1433177D1*
Y1178238D1*
X750000Y1348385D2*
X762354Y1311885D1*
X786500Y1287458D1*
X823000Y1275385D1*
X835073D1*
X871573Y1287458D1*
X895719Y1311885D1*
X908073Y1348385D1*
Y1360458D1*
X895719Y1396958D1*
X871573Y1421104D1*
X835073Y1433177D1*
X823000D1*
X786500Y1421104D1*
X762354Y1396958D1*
X750000Y1348385D1*
Y1287458D1*
X762354Y1226812D1*
X786500Y1190312D1*
X823000Y1178238D1*
X847146D1*
X883646Y1190312D1*
X895719Y1214738D1*
X2479651Y248385D2*
Y78238D1*
Y199812D2*
X2443151Y236312D1*
X2418724Y248385D1*
X2382504D1*
X2358078Y236312D1*
X2346004Y199812D1*
Y78238D1*
X2267573Y248385D2*
Y78238D1*
Y199812D2*
X2231073Y236312D1*
X2206646Y248385D1*
X2170427D1*
X2146000Y236312D1*
X2133927Y199812D1*
Y78238D1*
Y199812D2*
X2097427Y236312D1*
X2073000Y248385D1*
X2036781D1*
X2012354Y236312D1*
X2000000Y199812D1*
Y78238D1*
M02*
