M48
METRIC,0000.00
T01C0.9
T02C1.1
T03C2.3
%
T01
X+001570Y+002170
X+001360Y+002170
X+001360Y+001920
X+001830Y+002170
X+002040Y+002170
X+002040Y+001920
X+002040Y+001020
X+002040Y+000770
X+001830Y+000770
X+001570Y+000770
X+001360Y+000770
X+001360Y+001020
T02
X+000300Y+001702
X+000300Y+001956
X+000300Y+002210
X+000300Y+002464
X+000300Y+002718
X+000300Y+001198
X+000300Y+000944
X+000300Y+000690
X+000300Y+000436
X+000300Y+000182
T03
X+002375Y+002470
X+001700Y+002550
X+001025Y+002470
X+001025Y+000470
X+001700Y+000390
X+002375Y+000470
T00
M30
