G04 #@! TF.GenerationSoftware,KiCad,Pcbnew,(5.1.4)-1*
G04 #@! TF.CreationDate,2020-01-19T14:57:57-08:00*
G04 #@! TF.ProjectId,LEDStrip,4c454453-7472-4697-902e-6b696361645f,rev?*
G04 #@! TF.SameCoordinates,Original*
G04 #@! TF.FileFunction,Copper,L2,Bot*
G04 #@! TF.FilePolarity,Positive*
%FSLAX46Y46*%
G04 Gerber Fmt 4.6, Leading zero omitted, Abs format (unit mm)*
G04 Created by KiCad (PCBNEW (5.1.4)-1) date 2020-01-19 14:57:57*
%MOMM*%
%LPD*%
G04 APERTURE LIST*
%ADD10O,1.700000X1.700000*%
%ADD11R,1.700000X1.700000*%
%ADD12O,2.000000X1.905000*%
%ADD13R,2.000000X1.905000*%
%ADD14C,0.254000*%
G04 APERTURE END LIST*
D10*
X187960000Y-63500000D03*
X187960000Y-60960000D03*
X187960000Y-58420000D03*
D11*
X187960000Y-55880000D03*
D10*
X132080000Y-55880000D03*
X132080000Y-58420000D03*
X132080000Y-60960000D03*
X132080000Y-63500000D03*
D11*
X132080000Y-66040000D03*
D12*
X152400000Y-50800000D03*
X152400000Y-48260000D03*
D13*
X152400000Y-45720000D03*
D12*
X152400000Y-62230000D03*
X152400000Y-59690000D03*
D13*
X152400000Y-57150000D03*
D12*
X152400000Y-73660000D03*
X152400000Y-71120000D03*
D13*
X152400000Y-68580000D03*
D14*
G36*
X157353000Y-76073000D02*
G01*
X130937000Y-76073000D01*
X130937000Y-74032980D01*
X150809437Y-74032980D01*
X150880429Y-74251094D01*
X151024031Y-74526923D01*
X151218685Y-74769437D01*
X151456911Y-74969316D01*
X151729554Y-75118879D01*
X152026137Y-75212378D01*
X152273000Y-75085570D01*
X152273000Y-73787000D01*
X152527000Y-73787000D01*
X152527000Y-75085570D01*
X152773863Y-75212378D01*
X153070446Y-75118879D01*
X153343089Y-74969316D01*
X153581315Y-74769437D01*
X153775969Y-74526923D01*
X153919571Y-74251094D01*
X153990563Y-74032980D01*
X153870594Y-73787000D01*
X152527000Y-73787000D01*
X152273000Y-73787000D01*
X150929406Y-73787000D01*
X150809437Y-74032980D01*
X130937000Y-74032980D01*
X130937000Y-71120000D01*
X150757319Y-71120000D01*
X150787970Y-71431204D01*
X150878745Y-71730449D01*
X151026155Y-72006235D01*
X151224537Y-72247963D01*
X151403899Y-72395163D01*
X151218685Y-72550563D01*
X151024031Y-72793077D01*
X150880429Y-73068906D01*
X150809437Y-73287020D01*
X150929406Y-73533000D01*
X152273000Y-73533000D01*
X152273000Y-73513000D01*
X152527000Y-73513000D01*
X152527000Y-73533000D01*
X153870594Y-73533000D01*
X153990563Y-73287020D01*
X153919571Y-73068906D01*
X153775969Y-72793077D01*
X153581315Y-72550563D01*
X153396101Y-72395163D01*
X153575463Y-72247963D01*
X153773845Y-72006235D01*
X153921255Y-71730449D01*
X154012030Y-71431204D01*
X154042681Y-71120000D01*
X154012030Y-70808796D01*
X153921255Y-70509551D01*
X153773845Y-70233765D01*
X153670554Y-70107905D01*
X153754494Y-70063037D01*
X153851185Y-69983685D01*
X153930537Y-69886994D01*
X153989502Y-69776680D01*
X154025812Y-69656982D01*
X154038072Y-69532500D01*
X154038072Y-67627500D01*
X154025812Y-67503018D01*
X153989502Y-67383320D01*
X153930537Y-67273006D01*
X153851185Y-67176315D01*
X153754494Y-67096963D01*
X153644180Y-67037998D01*
X153524482Y-67001688D01*
X153400000Y-66989428D01*
X151400000Y-66989428D01*
X151275518Y-67001688D01*
X151155820Y-67037998D01*
X151045506Y-67096963D01*
X150948815Y-67176315D01*
X150869463Y-67273006D01*
X150810498Y-67383320D01*
X150774188Y-67503018D01*
X150761928Y-67627500D01*
X150761928Y-69532500D01*
X150774188Y-69656982D01*
X150810498Y-69776680D01*
X150869463Y-69886994D01*
X150948815Y-69983685D01*
X151045506Y-70063037D01*
X151129446Y-70107905D01*
X151026155Y-70233765D01*
X150878745Y-70509551D01*
X150787970Y-70808796D01*
X150757319Y-71120000D01*
X130937000Y-71120000D01*
X130937000Y-67453407D01*
X130985820Y-67479502D01*
X131105518Y-67515812D01*
X131230000Y-67528072D01*
X132930000Y-67528072D01*
X133054482Y-67515812D01*
X133174180Y-67479502D01*
X133284494Y-67420537D01*
X133381185Y-67341185D01*
X133460537Y-67244494D01*
X133519502Y-67134180D01*
X133555812Y-67014482D01*
X133568072Y-66890000D01*
X133568072Y-65190000D01*
X133555812Y-65065518D01*
X133519502Y-64945820D01*
X133460537Y-64835506D01*
X133381185Y-64738815D01*
X133284494Y-64659463D01*
X133174180Y-64600498D01*
X133105313Y-64579607D01*
X133135134Y-64555134D01*
X133320706Y-64329014D01*
X133458599Y-64071034D01*
X133543513Y-63791111D01*
X133572185Y-63500000D01*
X133543513Y-63208889D01*
X133458599Y-62928966D01*
X133320706Y-62670986D01*
X133264895Y-62602980D01*
X150809437Y-62602980D01*
X150880429Y-62821094D01*
X151024031Y-63096923D01*
X151218685Y-63339437D01*
X151456911Y-63539316D01*
X151729554Y-63688879D01*
X152026137Y-63782378D01*
X152273000Y-63655570D01*
X152273000Y-62357000D01*
X152527000Y-62357000D01*
X152527000Y-63655570D01*
X152773863Y-63782378D01*
X153070446Y-63688879D01*
X153343089Y-63539316D01*
X153581315Y-63339437D01*
X153775969Y-63096923D01*
X153919571Y-62821094D01*
X153990563Y-62602980D01*
X153870594Y-62357000D01*
X152527000Y-62357000D01*
X152273000Y-62357000D01*
X150929406Y-62357000D01*
X150809437Y-62602980D01*
X133264895Y-62602980D01*
X133135134Y-62444866D01*
X132909014Y-62259294D01*
X132854209Y-62230000D01*
X132909014Y-62200706D01*
X133135134Y-62015134D01*
X133320706Y-61789014D01*
X133458599Y-61531034D01*
X133543513Y-61251111D01*
X133572185Y-60960000D01*
X133543513Y-60668889D01*
X133458599Y-60388966D01*
X133320706Y-60130986D01*
X133135134Y-59904866D01*
X132909014Y-59719294D01*
X132854208Y-59690000D01*
X150757319Y-59690000D01*
X150787970Y-60001204D01*
X150878745Y-60300449D01*
X151026155Y-60576235D01*
X151224537Y-60817963D01*
X151403899Y-60965163D01*
X151218685Y-61120563D01*
X151024031Y-61363077D01*
X150880429Y-61638906D01*
X150809437Y-61857020D01*
X150929406Y-62103000D01*
X152273000Y-62103000D01*
X152273000Y-62083000D01*
X152527000Y-62083000D01*
X152527000Y-62103000D01*
X153870594Y-62103000D01*
X153990563Y-61857020D01*
X153919571Y-61638906D01*
X153775969Y-61363077D01*
X153581315Y-61120563D01*
X153396101Y-60965163D01*
X153575463Y-60817963D01*
X153773845Y-60576235D01*
X153921255Y-60300449D01*
X154012030Y-60001204D01*
X154042681Y-59690000D01*
X154012030Y-59378796D01*
X153921255Y-59079551D01*
X153773845Y-58803765D01*
X153670554Y-58677905D01*
X153754494Y-58633037D01*
X153851185Y-58553685D01*
X153930537Y-58456994D01*
X153989502Y-58346680D01*
X154025812Y-58226982D01*
X154038072Y-58102500D01*
X154038072Y-56197500D01*
X154025812Y-56073018D01*
X153989502Y-55953320D01*
X153930537Y-55843006D01*
X153851185Y-55746315D01*
X153754494Y-55666963D01*
X153644180Y-55607998D01*
X153524482Y-55571688D01*
X153400000Y-55559428D01*
X151400000Y-55559428D01*
X151275518Y-55571688D01*
X151155820Y-55607998D01*
X151045506Y-55666963D01*
X150948815Y-55746315D01*
X150869463Y-55843006D01*
X150810498Y-55953320D01*
X150774188Y-56073018D01*
X150761928Y-56197500D01*
X150761928Y-58102500D01*
X150774188Y-58226982D01*
X150810498Y-58346680D01*
X150869463Y-58456994D01*
X150948815Y-58553685D01*
X151045506Y-58633037D01*
X151129446Y-58677905D01*
X151026155Y-58803765D01*
X150878745Y-59079551D01*
X150787970Y-59378796D01*
X150757319Y-59690000D01*
X132854208Y-59690000D01*
X132844477Y-59684799D01*
X132961355Y-59615178D01*
X133177588Y-59420269D01*
X133351641Y-59186920D01*
X133476825Y-58924099D01*
X133521476Y-58776890D01*
X133400155Y-58547000D01*
X132207000Y-58547000D01*
X132207000Y-58567000D01*
X131953000Y-58567000D01*
X131953000Y-58547000D01*
X131933000Y-58547000D01*
X131933000Y-58293000D01*
X131953000Y-58293000D01*
X131953000Y-58273000D01*
X132207000Y-58273000D01*
X132207000Y-58293000D01*
X133400155Y-58293000D01*
X133521476Y-58063110D01*
X133476825Y-57915901D01*
X133351641Y-57653080D01*
X133177588Y-57419731D01*
X132961355Y-57224822D01*
X132844477Y-57155201D01*
X132909014Y-57120706D01*
X133135134Y-56935134D01*
X133320706Y-56709014D01*
X133458599Y-56451034D01*
X133543513Y-56171111D01*
X133572185Y-55880000D01*
X133543513Y-55588889D01*
X133458599Y-55308966D01*
X133320706Y-55050986D01*
X133135134Y-54824866D01*
X132909014Y-54639294D01*
X132651034Y-54501401D01*
X132371111Y-54416487D01*
X132152950Y-54395000D01*
X132007050Y-54395000D01*
X131788889Y-54416487D01*
X131508966Y-54501401D01*
X131250986Y-54639294D01*
X131024866Y-54824866D01*
X130937000Y-54931931D01*
X130937000Y-51172980D01*
X150809437Y-51172980D01*
X150880429Y-51391094D01*
X151024031Y-51666923D01*
X151218685Y-51909437D01*
X151456911Y-52109316D01*
X151729554Y-52258879D01*
X152026137Y-52352378D01*
X152273000Y-52225570D01*
X152273000Y-50927000D01*
X152527000Y-50927000D01*
X152527000Y-52225570D01*
X152773863Y-52352378D01*
X153070446Y-52258879D01*
X153343089Y-52109316D01*
X153581315Y-51909437D01*
X153775969Y-51666923D01*
X153919571Y-51391094D01*
X153990563Y-51172980D01*
X153870594Y-50927000D01*
X152527000Y-50927000D01*
X152273000Y-50927000D01*
X150929406Y-50927000D01*
X150809437Y-51172980D01*
X130937000Y-51172980D01*
X130937000Y-48260000D01*
X150757319Y-48260000D01*
X150787970Y-48571204D01*
X150878745Y-48870449D01*
X151026155Y-49146235D01*
X151224537Y-49387963D01*
X151403899Y-49535163D01*
X151218685Y-49690563D01*
X151024031Y-49933077D01*
X150880429Y-50208906D01*
X150809437Y-50427020D01*
X150929406Y-50673000D01*
X152273000Y-50673000D01*
X152273000Y-50653000D01*
X152527000Y-50653000D01*
X152527000Y-50673000D01*
X153870594Y-50673000D01*
X153990563Y-50427020D01*
X153919571Y-50208906D01*
X153775969Y-49933077D01*
X153581315Y-49690563D01*
X153396101Y-49535163D01*
X153575463Y-49387963D01*
X153773845Y-49146235D01*
X153921255Y-48870449D01*
X154012030Y-48571204D01*
X154042681Y-48260000D01*
X154012030Y-47948796D01*
X153921255Y-47649551D01*
X153773845Y-47373765D01*
X153670554Y-47247905D01*
X153754494Y-47203037D01*
X153851185Y-47123685D01*
X153930537Y-47026994D01*
X153989502Y-46916680D01*
X154025812Y-46796982D01*
X154038072Y-46672500D01*
X154038072Y-44767500D01*
X154025812Y-44643018D01*
X153989502Y-44523320D01*
X153930537Y-44413006D01*
X153851185Y-44316315D01*
X153754494Y-44236963D01*
X153644180Y-44177998D01*
X153524482Y-44141688D01*
X153400000Y-44129428D01*
X151400000Y-44129428D01*
X151275518Y-44141688D01*
X151155820Y-44177998D01*
X151045506Y-44236963D01*
X150948815Y-44316315D01*
X150869463Y-44413006D01*
X150810498Y-44523320D01*
X150774188Y-44643018D01*
X150761928Y-44767500D01*
X150761928Y-46672500D01*
X150774188Y-46796982D01*
X150810498Y-46916680D01*
X150869463Y-47026994D01*
X150948815Y-47123685D01*
X151045506Y-47203037D01*
X151129446Y-47247905D01*
X151026155Y-47373765D01*
X150878745Y-47649551D01*
X150787970Y-47948796D01*
X150757319Y-48260000D01*
X130937000Y-48260000D01*
X130937000Y-43307000D01*
X157353000Y-43307000D01*
X157353000Y-76073000D01*
X157353000Y-76073000D01*
G37*
X157353000Y-76073000D02*
X130937000Y-76073000D01*
X130937000Y-74032980D01*
X150809437Y-74032980D01*
X150880429Y-74251094D01*
X151024031Y-74526923D01*
X151218685Y-74769437D01*
X151456911Y-74969316D01*
X151729554Y-75118879D01*
X152026137Y-75212378D01*
X152273000Y-75085570D01*
X152273000Y-73787000D01*
X152527000Y-73787000D01*
X152527000Y-75085570D01*
X152773863Y-75212378D01*
X153070446Y-75118879D01*
X153343089Y-74969316D01*
X153581315Y-74769437D01*
X153775969Y-74526923D01*
X153919571Y-74251094D01*
X153990563Y-74032980D01*
X153870594Y-73787000D01*
X152527000Y-73787000D01*
X152273000Y-73787000D01*
X150929406Y-73787000D01*
X150809437Y-74032980D01*
X130937000Y-74032980D01*
X130937000Y-71120000D01*
X150757319Y-71120000D01*
X150787970Y-71431204D01*
X150878745Y-71730449D01*
X151026155Y-72006235D01*
X151224537Y-72247963D01*
X151403899Y-72395163D01*
X151218685Y-72550563D01*
X151024031Y-72793077D01*
X150880429Y-73068906D01*
X150809437Y-73287020D01*
X150929406Y-73533000D01*
X152273000Y-73533000D01*
X152273000Y-73513000D01*
X152527000Y-73513000D01*
X152527000Y-73533000D01*
X153870594Y-73533000D01*
X153990563Y-73287020D01*
X153919571Y-73068906D01*
X153775969Y-72793077D01*
X153581315Y-72550563D01*
X153396101Y-72395163D01*
X153575463Y-72247963D01*
X153773845Y-72006235D01*
X153921255Y-71730449D01*
X154012030Y-71431204D01*
X154042681Y-71120000D01*
X154012030Y-70808796D01*
X153921255Y-70509551D01*
X153773845Y-70233765D01*
X153670554Y-70107905D01*
X153754494Y-70063037D01*
X153851185Y-69983685D01*
X153930537Y-69886994D01*
X153989502Y-69776680D01*
X154025812Y-69656982D01*
X154038072Y-69532500D01*
X154038072Y-67627500D01*
X154025812Y-67503018D01*
X153989502Y-67383320D01*
X153930537Y-67273006D01*
X153851185Y-67176315D01*
X153754494Y-67096963D01*
X153644180Y-67037998D01*
X153524482Y-67001688D01*
X153400000Y-66989428D01*
X151400000Y-66989428D01*
X151275518Y-67001688D01*
X151155820Y-67037998D01*
X151045506Y-67096963D01*
X150948815Y-67176315D01*
X150869463Y-67273006D01*
X150810498Y-67383320D01*
X150774188Y-67503018D01*
X150761928Y-67627500D01*
X150761928Y-69532500D01*
X150774188Y-69656982D01*
X150810498Y-69776680D01*
X150869463Y-69886994D01*
X150948815Y-69983685D01*
X151045506Y-70063037D01*
X151129446Y-70107905D01*
X151026155Y-70233765D01*
X150878745Y-70509551D01*
X150787970Y-70808796D01*
X150757319Y-71120000D01*
X130937000Y-71120000D01*
X130937000Y-67453407D01*
X130985820Y-67479502D01*
X131105518Y-67515812D01*
X131230000Y-67528072D01*
X132930000Y-67528072D01*
X133054482Y-67515812D01*
X133174180Y-67479502D01*
X133284494Y-67420537D01*
X133381185Y-67341185D01*
X133460537Y-67244494D01*
X133519502Y-67134180D01*
X133555812Y-67014482D01*
X133568072Y-66890000D01*
X133568072Y-65190000D01*
X133555812Y-65065518D01*
X133519502Y-64945820D01*
X133460537Y-64835506D01*
X133381185Y-64738815D01*
X133284494Y-64659463D01*
X133174180Y-64600498D01*
X133105313Y-64579607D01*
X133135134Y-64555134D01*
X133320706Y-64329014D01*
X133458599Y-64071034D01*
X133543513Y-63791111D01*
X133572185Y-63500000D01*
X133543513Y-63208889D01*
X133458599Y-62928966D01*
X133320706Y-62670986D01*
X133264895Y-62602980D01*
X150809437Y-62602980D01*
X150880429Y-62821094D01*
X151024031Y-63096923D01*
X151218685Y-63339437D01*
X151456911Y-63539316D01*
X151729554Y-63688879D01*
X152026137Y-63782378D01*
X152273000Y-63655570D01*
X152273000Y-62357000D01*
X152527000Y-62357000D01*
X152527000Y-63655570D01*
X152773863Y-63782378D01*
X153070446Y-63688879D01*
X153343089Y-63539316D01*
X153581315Y-63339437D01*
X153775969Y-63096923D01*
X153919571Y-62821094D01*
X153990563Y-62602980D01*
X153870594Y-62357000D01*
X152527000Y-62357000D01*
X152273000Y-62357000D01*
X150929406Y-62357000D01*
X150809437Y-62602980D01*
X133264895Y-62602980D01*
X133135134Y-62444866D01*
X132909014Y-62259294D01*
X132854209Y-62230000D01*
X132909014Y-62200706D01*
X133135134Y-62015134D01*
X133320706Y-61789014D01*
X133458599Y-61531034D01*
X133543513Y-61251111D01*
X133572185Y-60960000D01*
X133543513Y-60668889D01*
X133458599Y-60388966D01*
X133320706Y-60130986D01*
X133135134Y-59904866D01*
X132909014Y-59719294D01*
X132854208Y-59690000D01*
X150757319Y-59690000D01*
X150787970Y-60001204D01*
X150878745Y-60300449D01*
X151026155Y-60576235D01*
X151224537Y-60817963D01*
X151403899Y-60965163D01*
X151218685Y-61120563D01*
X151024031Y-61363077D01*
X150880429Y-61638906D01*
X150809437Y-61857020D01*
X150929406Y-62103000D01*
X152273000Y-62103000D01*
X152273000Y-62083000D01*
X152527000Y-62083000D01*
X152527000Y-62103000D01*
X153870594Y-62103000D01*
X153990563Y-61857020D01*
X153919571Y-61638906D01*
X153775969Y-61363077D01*
X153581315Y-61120563D01*
X153396101Y-60965163D01*
X153575463Y-60817963D01*
X153773845Y-60576235D01*
X153921255Y-60300449D01*
X154012030Y-60001204D01*
X154042681Y-59690000D01*
X154012030Y-59378796D01*
X153921255Y-59079551D01*
X153773845Y-58803765D01*
X153670554Y-58677905D01*
X153754494Y-58633037D01*
X153851185Y-58553685D01*
X153930537Y-58456994D01*
X153989502Y-58346680D01*
X154025812Y-58226982D01*
X154038072Y-58102500D01*
X154038072Y-56197500D01*
X154025812Y-56073018D01*
X153989502Y-55953320D01*
X153930537Y-55843006D01*
X153851185Y-55746315D01*
X153754494Y-55666963D01*
X153644180Y-55607998D01*
X153524482Y-55571688D01*
X153400000Y-55559428D01*
X151400000Y-55559428D01*
X151275518Y-55571688D01*
X151155820Y-55607998D01*
X151045506Y-55666963D01*
X150948815Y-55746315D01*
X150869463Y-55843006D01*
X150810498Y-55953320D01*
X150774188Y-56073018D01*
X150761928Y-56197500D01*
X150761928Y-58102500D01*
X150774188Y-58226982D01*
X150810498Y-58346680D01*
X150869463Y-58456994D01*
X150948815Y-58553685D01*
X151045506Y-58633037D01*
X151129446Y-58677905D01*
X151026155Y-58803765D01*
X150878745Y-59079551D01*
X150787970Y-59378796D01*
X150757319Y-59690000D01*
X132854208Y-59690000D01*
X132844477Y-59684799D01*
X132961355Y-59615178D01*
X133177588Y-59420269D01*
X133351641Y-59186920D01*
X133476825Y-58924099D01*
X133521476Y-58776890D01*
X133400155Y-58547000D01*
X132207000Y-58547000D01*
X132207000Y-58567000D01*
X131953000Y-58567000D01*
X131953000Y-58547000D01*
X131933000Y-58547000D01*
X131933000Y-58293000D01*
X131953000Y-58293000D01*
X131953000Y-58273000D01*
X132207000Y-58273000D01*
X132207000Y-58293000D01*
X133400155Y-58293000D01*
X133521476Y-58063110D01*
X133476825Y-57915901D01*
X133351641Y-57653080D01*
X133177588Y-57419731D01*
X132961355Y-57224822D01*
X132844477Y-57155201D01*
X132909014Y-57120706D01*
X133135134Y-56935134D01*
X133320706Y-56709014D01*
X133458599Y-56451034D01*
X133543513Y-56171111D01*
X133572185Y-55880000D01*
X133543513Y-55588889D01*
X133458599Y-55308966D01*
X133320706Y-55050986D01*
X133135134Y-54824866D01*
X132909014Y-54639294D01*
X132651034Y-54501401D01*
X132371111Y-54416487D01*
X132152950Y-54395000D01*
X132007050Y-54395000D01*
X131788889Y-54416487D01*
X131508966Y-54501401D01*
X131250986Y-54639294D01*
X131024866Y-54824866D01*
X130937000Y-54931931D01*
X130937000Y-51172980D01*
X150809437Y-51172980D01*
X150880429Y-51391094D01*
X151024031Y-51666923D01*
X151218685Y-51909437D01*
X151456911Y-52109316D01*
X151729554Y-52258879D01*
X152026137Y-52352378D01*
X152273000Y-52225570D01*
X152273000Y-50927000D01*
X152527000Y-50927000D01*
X152527000Y-52225570D01*
X152773863Y-52352378D01*
X153070446Y-52258879D01*
X153343089Y-52109316D01*
X153581315Y-51909437D01*
X153775969Y-51666923D01*
X153919571Y-51391094D01*
X153990563Y-51172980D01*
X153870594Y-50927000D01*
X152527000Y-50927000D01*
X152273000Y-50927000D01*
X150929406Y-50927000D01*
X150809437Y-51172980D01*
X130937000Y-51172980D01*
X130937000Y-48260000D01*
X150757319Y-48260000D01*
X150787970Y-48571204D01*
X150878745Y-48870449D01*
X151026155Y-49146235D01*
X151224537Y-49387963D01*
X151403899Y-49535163D01*
X151218685Y-49690563D01*
X151024031Y-49933077D01*
X150880429Y-50208906D01*
X150809437Y-50427020D01*
X150929406Y-50673000D01*
X152273000Y-50673000D01*
X152273000Y-50653000D01*
X152527000Y-50653000D01*
X152527000Y-50673000D01*
X153870594Y-50673000D01*
X153990563Y-50427020D01*
X153919571Y-50208906D01*
X153775969Y-49933077D01*
X153581315Y-49690563D01*
X153396101Y-49535163D01*
X153575463Y-49387963D01*
X153773845Y-49146235D01*
X153921255Y-48870449D01*
X154012030Y-48571204D01*
X154042681Y-48260000D01*
X154012030Y-47948796D01*
X153921255Y-47649551D01*
X153773845Y-47373765D01*
X153670554Y-47247905D01*
X153754494Y-47203037D01*
X153851185Y-47123685D01*
X153930537Y-47026994D01*
X153989502Y-46916680D01*
X154025812Y-46796982D01*
X154038072Y-46672500D01*
X154038072Y-44767500D01*
X154025812Y-44643018D01*
X153989502Y-44523320D01*
X153930537Y-44413006D01*
X153851185Y-44316315D01*
X153754494Y-44236963D01*
X153644180Y-44177998D01*
X153524482Y-44141688D01*
X153400000Y-44129428D01*
X151400000Y-44129428D01*
X151275518Y-44141688D01*
X151155820Y-44177998D01*
X151045506Y-44236963D01*
X150948815Y-44316315D01*
X150869463Y-44413006D01*
X150810498Y-44523320D01*
X150774188Y-44643018D01*
X150761928Y-44767500D01*
X150761928Y-46672500D01*
X150774188Y-46796982D01*
X150810498Y-46916680D01*
X150869463Y-47026994D01*
X150948815Y-47123685D01*
X151045506Y-47203037D01*
X151129446Y-47247905D01*
X151026155Y-47373765D01*
X150878745Y-47649551D01*
X150787970Y-47948796D01*
X150757319Y-48260000D01*
X130937000Y-48260000D01*
X130937000Y-43307000D01*
X157353000Y-43307000D01*
X157353000Y-76073000D01*
M02*
