G04 #@! TF.GenerationSoftware,KiCad,Pcbnew,(5.1.4)-1*
G04 #@! TF.CreationDate,2020-01-19T14:57:57-08:00*
G04 #@! TF.ProjectId,LEDStrip,4c454453-7472-4697-902e-6b696361645f,rev?*
G04 #@! TF.SameCoordinates,Original*
G04 #@! TF.FileFunction,Copper,L1,Top*
G04 #@! TF.FilePolarity,Positive*
%FSLAX46Y46*%
G04 Gerber Fmt 4.6, Leading zero omitted, Abs format (unit mm)*
G04 Created by KiCad (PCBNEW (5.1.4)-1) date 2020-01-19 14:57:57*
%MOMM*%
%LPD*%
G04 APERTURE LIST*
%ADD10O,1.700000X1.700000*%
%ADD11R,1.700000X1.700000*%
%ADD12O,2.000000X1.905000*%
%ADD13R,2.000000X1.905000*%
%ADD14C,0.100000*%
%ADD15C,1.525000*%
%ADD16C,0.300000*%
G04 APERTURE END LIST*
D10*
X187960000Y-63500000D03*
X187960000Y-60960000D03*
X187960000Y-58420000D03*
D11*
X187960000Y-55880000D03*
D10*
X132080000Y-55880000D03*
X132080000Y-58420000D03*
X132080000Y-60960000D03*
X132080000Y-63500000D03*
D11*
X132080000Y-66040000D03*
D12*
X152400000Y-50800000D03*
X152400000Y-48260000D03*
D13*
X152400000Y-45720000D03*
D12*
X152400000Y-62230000D03*
X152400000Y-59690000D03*
D13*
X152400000Y-57150000D03*
D12*
X152400000Y-73660000D03*
X152400000Y-71120000D03*
D13*
X152400000Y-68580000D03*
D14*
G36*
X139169505Y-48206204D02*
G01*
X139193773Y-48209804D01*
X139217572Y-48215765D01*
X139240671Y-48224030D01*
X139262850Y-48234520D01*
X139283893Y-48247132D01*
X139303599Y-48261747D01*
X139321777Y-48278223D01*
X139338253Y-48296401D01*
X139352868Y-48316107D01*
X139365480Y-48337150D01*
X139375970Y-48359329D01*
X139384235Y-48382428D01*
X139390196Y-48406227D01*
X139393796Y-48430495D01*
X139395000Y-48454999D01*
X139395000Y-50605001D01*
X139393796Y-50629505D01*
X139390196Y-50653773D01*
X139384235Y-50677572D01*
X139375970Y-50700671D01*
X139365480Y-50722850D01*
X139352868Y-50743893D01*
X139338253Y-50763599D01*
X139321777Y-50781777D01*
X139303599Y-50798253D01*
X139283893Y-50812868D01*
X139262850Y-50825480D01*
X139240671Y-50835970D01*
X139217572Y-50844235D01*
X139193773Y-50850196D01*
X139169505Y-50853796D01*
X139145001Y-50855000D01*
X138119999Y-50855000D01*
X138095495Y-50853796D01*
X138071227Y-50850196D01*
X138047428Y-50844235D01*
X138024329Y-50835970D01*
X138002150Y-50825480D01*
X137981107Y-50812868D01*
X137961401Y-50798253D01*
X137943223Y-50781777D01*
X137926747Y-50763599D01*
X137912132Y-50743893D01*
X137899520Y-50722850D01*
X137889030Y-50700671D01*
X137880765Y-50677572D01*
X137874804Y-50653773D01*
X137871204Y-50629505D01*
X137870000Y-50605001D01*
X137870000Y-48454999D01*
X137871204Y-48430495D01*
X137874804Y-48406227D01*
X137880765Y-48382428D01*
X137889030Y-48359329D01*
X137899520Y-48337150D01*
X137912132Y-48316107D01*
X137926747Y-48296401D01*
X137943223Y-48278223D01*
X137961401Y-48261747D01*
X137981107Y-48247132D01*
X138002150Y-48234520D01*
X138024329Y-48224030D01*
X138047428Y-48215765D01*
X138071227Y-48209804D01*
X138095495Y-48206204D01*
X138119999Y-48205000D01*
X139145001Y-48205000D01*
X139169505Y-48206204D01*
X139169505Y-48206204D01*
G37*
D15*
X138632500Y-49530000D03*
D14*
G36*
X143844505Y-48206204D02*
G01*
X143868773Y-48209804D01*
X143892572Y-48215765D01*
X143915671Y-48224030D01*
X143937850Y-48234520D01*
X143958893Y-48247132D01*
X143978599Y-48261747D01*
X143996777Y-48278223D01*
X144013253Y-48296401D01*
X144027868Y-48316107D01*
X144040480Y-48337150D01*
X144050970Y-48359329D01*
X144059235Y-48382428D01*
X144065196Y-48406227D01*
X144068796Y-48430495D01*
X144070000Y-48454999D01*
X144070000Y-50605001D01*
X144068796Y-50629505D01*
X144065196Y-50653773D01*
X144059235Y-50677572D01*
X144050970Y-50700671D01*
X144040480Y-50722850D01*
X144027868Y-50743893D01*
X144013253Y-50763599D01*
X143996777Y-50781777D01*
X143978599Y-50798253D01*
X143958893Y-50812868D01*
X143937850Y-50825480D01*
X143915671Y-50835970D01*
X143892572Y-50844235D01*
X143868773Y-50850196D01*
X143844505Y-50853796D01*
X143820001Y-50855000D01*
X142794999Y-50855000D01*
X142770495Y-50853796D01*
X142746227Y-50850196D01*
X142722428Y-50844235D01*
X142699329Y-50835970D01*
X142677150Y-50825480D01*
X142656107Y-50812868D01*
X142636401Y-50798253D01*
X142618223Y-50781777D01*
X142601747Y-50763599D01*
X142587132Y-50743893D01*
X142574520Y-50722850D01*
X142564030Y-50700671D01*
X142555765Y-50677572D01*
X142549804Y-50653773D01*
X142546204Y-50629505D01*
X142545000Y-50605001D01*
X142545000Y-48454999D01*
X142546204Y-48430495D01*
X142549804Y-48406227D01*
X142555765Y-48382428D01*
X142564030Y-48359329D01*
X142574520Y-48337150D01*
X142587132Y-48316107D01*
X142601747Y-48296401D01*
X142618223Y-48278223D01*
X142636401Y-48261747D01*
X142656107Y-48247132D01*
X142677150Y-48234520D01*
X142699329Y-48224030D01*
X142722428Y-48215765D01*
X142746227Y-48209804D01*
X142770495Y-48206204D01*
X142794999Y-48205000D01*
X143820001Y-48205000D01*
X143844505Y-48206204D01*
X143844505Y-48206204D01*
G37*
D15*
X143307500Y-49530000D03*
D14*
G36*
X139169505Y-57096204D02*
G01*
X139193773Y-57099804D01*
X139217572Y-57105765D01*
X139240671Y-57114030D01*
X139262850Y-57124520D01*
X139283893Y-57137132D01*
X139303599Y-57151747D01*
X139321777Y-57168223D01*
X139338253Y-57186401D01*
X139352868Y-57206107D01*
X139365480Y-57227150D01*
X139375970Y-57249329D01*
X139384235Y-57272428D01*
X139390196Y-57296227D01*
X139393796Y-57320495D01*
X139395000Y-57344999D01*
X139395000Y-59495001D01*
X139393796Y-59519505D01*
X139390196Y-59543773D01*
X139384235Y-59567572D01*
X139375970Y-59590671D01*
X139365480Y-59612850D01*
X139352868Y-59633893D01*
X139338253Y-59653599D01*
X139321777Y-59671777D01*
X139303599Y-59688253D01*
X139283893Y-59702868D01*
X139262850Y-59715480D01*
X139240671Y-59725970D01*
X139217572Y-59734235D01*
X139193773Y-59740196D01*
X139169505Y-59743796D01*
X139145001Y-59745000D01*
X138119999Y-59745000D01*
X138095495Y-59743796D01*
X138071227Y-59740196D01*
X138047428Y-59734235D01*
X138024329Y-59725970D01*
X138002150Y-59715480D01*
X137981107Y-59702868D01*
X137961401Y-59688253D01*
X137943223Y-59671777D01*
X137926747Y-59653599D01*
X137912132Y-59633893D01*
X137899520Y-59612850D01*
X137889030Y-59590671D01*
X137880765Y-59567572D01*
X137874804Y-59543773D01*
X137871204Y-59519505D01*
X137870000Y-59495001D01*
X137870000Y-57344999D01*
X137871204Y-57320495D01*
X137874804Y-57296227D01*
X137880765Y-57272428D01*
X137889030Y-57249329D01*
X137899520Y-57227150D01*
X137912132Y-57206107D01*
X137926747Y-57186401D01*
X137943223Y-57168223D01*
X137961401Y-57151747D01*
X137981107Y-57137132D01*
X138002150Y-57124520D01*
X138024329Y-57114030D01*
X138047428Y-57105765D01*
X138071227Y-57099804D01*
X138095495Y-57096204D01*
X138119999Y-57095000D01*
X139145001Y-57095000D01*
X139169505Y-57096204D01*
X139169505Y-57096204D01*
G37*
D15*
X138632500Y-58420000D03*
D14*
G36*
X143844505Y-57096204D02*
G01*
X143868773Y-57099804D01*
X143892572Y-57105765D01*
X143915671Y-57114030D01*
X143937850Y-57124520D01*
X143958893Y-57137132D01*
X143978599Y-57151747D01*
X143996777Y-57168223D01*
X144013253Y-57186401D01*
X144027868Y-57206107D01*
X144040480Y-57227150D01*
X144050970Y-57249329D01*
X144059235Y-57272428D01*
X144065196Y-57296227D01*
X144068796Y-57320495D01*
X144070000Y-57344999D01*
X144070000Y-59495001D01*
X144068796Y-59519505D01*
X144065196Y-59543773D01*
X144059235Y-59567572D01*
X144050970Y-59590671D01*
X144040480Y-59612850D01*
X144027868Y-59633893D01*
X144013253Y-59653599D01*
X143996777Y-59671777D01*
X143978599Y-59688253D01*
X143958893Y-59702868D01*
X143937850Y-59715480D01*
X143915671Y-59725970D01*
X143892572Y-59734235D01*
X143868773Y-59740196D01*
X143844505Y-59743796D01*
X143820001Y-59745000D01*
X142794999Y-59745000D01*
X142770495Y-59743796D01*
X142746227Y-59740196D01*
X142722428Y-59734235D01*
X142699329Y-59725970D01*
X142677150Y-59715480D01*
X142656107Y-59702868D01*
X142636401Y-59688253D01*
X142618223Y-59671777D01*
X142601747Y-59653599D01*
X142587132Y-59633893D01*
X142574520Y-59612850D01*
X142564030Y-59590671D01*
X142555765Y-59567572D01*
X142549804Y-59543773D01*
X142546204Y-59519505D01*
X142545000Y-59495001D01*
X142545000Y-57344999D01*
X142546204Y-57320495D01*
X142549804Y-57296227D01*
X142555765Y-57272428D01*
X142564030Y-57249329D01*
X142574520Y-57227150D01*
X142587132Y-57206107D01*
X142601747Y-57186401D01*
X142618223Y-57168223D01*
X142636401Y-57151747D01*
X142656107Y-57137132D01*
X142677150Y-57124520D01*
X142699329Y-57114030D01*
X142722428Y-57105765D01*
X142746227Y-57099804D01*
X142770495Y-57096204D01*
X142794999Y-57095000D01*
X143820001Y-57095000D01*
X143844505Y-57096204D01*
X143844505Y-57096204D01*
G37*
D15*
X143307500Y-58420000D03*
D14*
G36*
X139169505Y-68526204D02*
G01*
X139193773Y-68529804D01*
X139217572Y-68535765D01*
X139240671Y-68544030D01*
X139262850Y-68554520D01*
X139283893Y-68567132D01*
X139303599Y-68581747D01*
X139321777Y-68598223D01*
X139338253Y-68616401D01*
X139352868Y-68636107D01*
X139365480Y-68657150D01*
X139375970Y-68679329D01*
X139384235Y-68702428D01*
X139390196Y-68726227D01*
X139393796Y-68750495D01*
X139395000Y-68774999D01*
X139395000Y-70925001D01*
X139393796Y-70949505D01*
X139390196Y-70973773D01*
X139384235Y-70997572D01*
X139375970Y-71020671D01*
X139365480Y-71042850D01*
X139352868Y-71063893D01*
X139338253Y-71083599D01*
X139321777Y-71101777D01*
X139303599Y-71118253D01*
X139283893Y-71132868D01*
X139262850Y-71145480D01*
X139240671Y-71155970D01*
X139217572Y-71164235D01*
X139193773Y-71170196D01*
X139169505Y-71173796D01*
X139145001Y-71175000D01*
X138119999Y-71175000D01*
X138095495Y-71173796D01*
X138071227Y-71170196D01*
X138047428Y-71164235D01*
X138024329Y-71155970D01*
X138002150Y-71145480D01*
X137981107Y-71132868D01*
X137961401Y-71118253D01*
X137943223Y-71101777D01*
X137926747Y-71083599D01*
X137912132Y-71063893D01*
X137899520Y-71042850D01*
X137889030Y-71020671D01*
X137880765Y-70997572D01*
X137874804Y-70973773D01*
X137871204Y-70949505D01*
X137870000Y-70925001D01*
X137870000Y-68774999D01*
X137871204Y-68750495D01*
X137874804Y-68726227D01*
X137880765Y-68702428D01*
X137889030Y-68679329D01*
X137899520Y-68657150D01*
X137912132Y-68636107D01*
X137926747Y-68616401D01*
X137943223Y-68598223D01*
X137961401Y-68581747D01*
X137981107Y-68567132D01*
X138002150Y-68554520D01*
X138024329Y-68544030D01*
X138047428Y-68535765D01*
X138071227Y-68529804D01*
X138095495Y-68526204D01*
X138119999Y-68525000D01*
X139145001Y-68525000D01*
X139169505Y-68526204D01*
X139169505Y-68526204D01*
G37*
D15*
X138632500Y-69850000D03*
D14*
G36*
X143844505Y-68526204D02*
G01*
X143868773Y-68529804D01*
X143892572Y-68535765D01*
X143915671Y-68544030D01*
X143937850Y-68554520D01*
X143958893Y-68567132D01*
X143978599Y-68581747D01*
X143996777Y-68598223D01*
X144013253Y-68616401D01*
X144027868Y-68636107D01*
X144040480Y-68657150D01*
X144050970Y-68679329D01*
X144059235Y-68702428D01*
X144065196Y-68726227D01*
X144068796Y-68750495D01*
X144070000Y-68774999D01*
X144070000Y-70925001D01*
X144068796Y-70949505D01*
X144065196Y-70973773D01*
X144059235Y-70997572D01*
X144050970Y-71020671D01*
X144040480Y-71042850D01*
X144027868Y-71063893D01*
X144013253Y-71083599D01*
X143996777Y-71101777D01*
X143978599Y-71118253D01*
X143958893Y-71132868D01*
X143937850Y-71145480D01*
X143915671Y-71155970D01*
X143892572Y-71164235D01*
X143868773Y-71170196D01*
X143844505Y-71173796D01*
X143820001Y-71175000D01*
X142794999Y-71175000D01*
X142770495Y-71173796D01*
X142746227Y-71170196D01*
X142722428Y-71164235D01*
X142699329Y-71155970D01*
X142677150Y-71145480D01*
X142656107Y-71132868D01*
X142636401Y-71118253D01*
X142618223Y-71101777D01*
X142601747Y-71083599D01*
X142587132Y-71063893D01*
X142574520Y-71042850D01*
X142564030Y-71020671D01*
X142555765Y-70997572D01*
X142549804Y-70973773D01*
X142546204Y-70949505D01*
X142545000Y-70925001D01*
X142545000Y-68774999D01*
X142546204Y-68750495D01*
X142549804Y-68726227D01*
X142555765Y-68702428D01*
X142564030Y-68679329D01*
X142574520Y-68657150D01*
X142587132Y-68636107D01*
X142601747Y-68616401D01*
X142618223Y-68598223D01*
X142636401Y-68581747D01*
X142656107Y-68567132D01*
X142677150Y-68554520D01*
X142699329Y-68544030D01*
X142722428Y-68535765D01*
X142746227Y-68529804D01*
X142770495Y-68526204D01*
X142794999Y-68525000D01*
X143820001Y-68525000D01*
X143844505Y-68526204D01*
X143844505Y-68526204D01*
G37*
D15*
X143307500Y-69850000D03*
D16*
X134822500Y-66040000D02*
X138632500Y-69850000D01*
X132080000Y-66040000D02*
X134822500Y-66040000D01*
X133552500Y-63500000D02*
X138632500Y-58420000D01*
X132080000Y-63500000D02*
X133552500Y-63500000D01*
X137770000Y-49530000D02*
X138632500Y-49530000D01*
X138632500Y-54407500D02*
X138632500Y-49530000D01*
X132080000Y-60960000D02*
X138632500Y-54407500D01*
X180340000Y-71120000D02*
X187960000Y-63500000D01*
X152400000Y-71120000D02*
X180340000Y-71120000D01*
X186690000Y-59690000D02*
X187960000Y-60960000D01*
X152400000Y-59690000D02*
X186690000Y-59690000D01*
X177800000Y-48260000D02*
X187960000Y-58420000D01*
X152400000Y-48260000D02*
X177800000Y-48260000D01*
X132080000Y-55880000D02*
X132080000Y-54730000D01*
X132080000Y-55880000D02*
X132080000Y-48260000D01*
X186810000Y-55880000D02*
X187960000Y-55880000D01*
X175297499Y-44367499D02*
X186810000Y-55880000D01*
X135972501Y-44367499D02*
X175297499Y-44367499D01*
X132080000Y-48260000D02*
X135972501Y-44367499D01*
X152352500Y-45720000D02*
X152400000Y-45720000D01*
X151100000Y-46972500D02*
X152352500Y-45720000D01*
X151100000Y-47020000D02*
X151100000Y-46972500D01*
X148590000Y-49530000D02*
X151100000Y-47020000D01*
X143307500Y-49530000D02*
X148590000Y-49530000D01*
X151130000Y-58420000D02*
X152400000Y-57150000D01*
X143307500Y-58420000D02*
X151130000Y-58420000D01*
X151130000Y-69850000D02*
X152400000Y-68580000D01*
X143307500Y-69850000D02*
X151130000Y-69850000D01*
M02*
